<?xml version="1.0" encoding="UTF-8" standalone="no"?>
<!-- Created with Inkscape (http://www.inkscape.org/) -->

<svg
   width="133.38803mm"
   height="60.582001mm"
   viewBox="0 0 133.38803 60.582"
   version="1.1"
   id="svg5"
   inkscape:export-filename="C:\Users\evild\Documents\Github\mff\MusicMap\musicmap-web\public\logo192.png"
   inkscape:export-xdpi="34.552734"
   inkscape:export-ydpi="34.552734"
   inkscape:version="1.1.1 (3bf5ae0d25, 2021-09-20)"
   sodipodi:docname="logo.svg"
   xmlns:inkscape="http://www.inkscape.org/namespaces/inkscape"
   xmlns:sodipodi="http://sodipodi.sourceforge.net/DTD/sodipodi-0.dtd"
   xmlns="http://www.w3.org/2000/svg"
   xmlns:svg="http://www.w3.org/2000/svg">
  <sodipodi:namedview
     id="namedview7"
     pagecolor="#505050"
     bordercolor="#ffffff"
     borderopacity="1"
     inkscape:pageshadow="0"
     inkscape:pageopacity="0"
     inkscape:pagecheckerboard="1"
     inkscape:document-units="mm"
     showgrid="false"
     inkscape:snap-smooth-nodes="true"
     inkscape:zoom="0.57549102"
     inkscape:cx="102.52115"
     inkscape:cy="217.20582"
     inkscape:window-width="1920"
     inkscape:window-height="1009"
     inkscape:window-x="-8"
     inkscape:window-y="-8"
     inkscape:window-maximized="1"
     inkscape:current-layer="layer1" />
  <defs
     id="defs2" />
  <g
     inkscape:label="Layer 1"
     inkscape:groupmode="layer"
     id="layer1"
     transform="translate(-141.5188,-188.13811)">
    <path
       style="color:#000000;fill:#ff152c;fill-opacity:1;stroke:#000000;stroke-width:1;stroke-miterlimit:4;stroke-dasharray:none;stroke-dashoffset:0;stroke-opacity:1"
       d="m 246.29102,225.45508 c -2.2487,2.46029 -4.4974,4.92057 -6.7461,7.38086 3.60952,3.29162 8.80843,3.64556 13.44373,3.13676 -0.35352,-3.31445 -0.70703,-6.62891 -1.06055,-9.94336 -1.84962,0.11144 -3.97234,0.42708 -5.63708,-0.57426 z"
       id="path15279" />
    <path
       id="path15277"
       style="color:#000000;fill:#320005;fill-opacity:1;stroke:#000000;stroke-width:3.77953;stroke-miterlimit:4;stroke-dasharray:none;stroke-dashoffset:0;stroke-opacity:1"
       d="m 638.50391,844.31836 c -0.59906,3.9107 -1.34487,8.00671 -2.07032,12.14844 -11.6319,-3.0751 -24.92681,-3.75701 -38.19336,-1.95899 -36.92607,5.02674 -64.3424,27.60218 -61.23632,50.42383 3.10641,22.82194 35.55975,37.24769 72.48632,32.2207 36.92606,-5.02674 56.01049,-27.7129 61.23633,-50.42382 2.55222,-11.09166 6.50295,-27.52249 2.71485,-35.70313 z"
       transform="scale(0.26458333)"
       sodipodi:nodetypes="ccccsscc" />
    <path
       style="color:#000000;fill:#99000f;fill-opacity:1;stroke:#000000;stroke-width:1;stroke-miterlimit:4;stroke-dasharray:none;stroke-dashoffset:0;stroke-opacity:1"
       d="m 199.4375,214.41406 c -0.4699,4.31477 1.81486,9.17495 6.3116,10.26524 1.731,0.31461 6.71921,1.41706 5.92828,-1.13461 -0.72592,-2.68234 -1.62842,-5.32906 -2.24238,-8.03398 0.0117,-1.43631 -2.4104,-0.51084 -3.52324,-0.85588 -2.15809,-0.0803 -4.31617,-0.16051 -6.47426,-0.24077 z"
       id="path15275" />
    <path
       style="color:#000000;fill:#ff021b;fill-opacity:1;stroke:#000000;stroke-width:1;stroke-miterlimit:4;stroke-dasharray:none;stroke-dashoffset:0;stroke-opacity:1"
       d="m 236.73047,213.85937 c -0.72686,3.81355 -1.42045,7.73862 -0.87469,11.62331 3.29557,-0.50195 6.59115,-1.00391 9.88672,-1.50586 -0.41737,-2.74842 0.62928,-5.82985 0.61271,-8.25397 -3.20825,-0.62116 -6.41649,-1.24232 -9.62474,-1.86348 z"
       id="path15273" />
    <path
       style="color:#000000;fill:#460006;fill-opacity:1;stroke:#000000;stroke-width:1;stroke-miterlimit:4;stroke-dasharray:none;stroke-dashoffset:0;stroke-opacity:1"
       d="m 173.43555,207.98633 c -1.40213,3.31596 -2.48645,6.76011 -3.36147,10.25037 3.23307,0.81055 6.46615,1.62109 9.69922,2.43164 0.58653,-2.96587 2.04758,-6.17672 2.67377,-8.8154 -3.00384,-1.28887 -6.00768,-2.57774 -9.01152,-3.86661 z"
       id="path15271" />
    <path
       style="color:#000000;fill:#ac0011;fill-opacity:1;stroke:#000000;stroke-width:1;stroke-miterlimit:4;stroke-dasharray:none;stroke-dashoffset:0;stroke-opacity:1"
       d="m 213.76953,205.88867 c -0.37264,2.81078 -3.56096,6.42874 -2.82806,8.55875 2.54749,1.71874 5.09498,3.43747 7.64247,5.1562 2.07297,-3.10659 3.20361,-6.70002 4.53139,-10.15676 -3.11527,-1.18606 -6.23053,-2.37213 -9.3458,-3.55819 z"
       id="path15269" />
    <path
       style="color:#000000;fill:#ea0017;fill-opacity:1;stroke:#000000;stroke-width:1;stroke-miterlimit:4;stroke-dasharray:none;stroke-dashoffset:0;stroke-opacity:1"
       d="m 248.19922,199.08203 c -3.2793,0.59896 -6.55859,1.19792 -9.83789,1.79688 0.76632,2.58437 -0.95537,6.17308 -0.27403,8.1595 3.14603,0.60243 6.29205,1.20486 9.43808,1.80729 0.71829,-3.86176 1.3641,-7.85238 0.67384,-11.76367 z"
       id="path15267" />
    <path
       style="color:#000000;fill:#85000d;fill-opacity:1;stroke:#000000;stroke-width:1;stroke-miterlimit:4;stroke-dasharray:none;stroke-dashoffset:0;stroke-opacity:1"
       d="m 209.07812,197.5625 c -2.98624,1.43878 -6.03997,3.07342 -8.98433,4.39065 1.44102,2.05453 -1.07748,6.11208 0.73362,7.09514 3.04253,0.42728 6.08507,0.85455 9.12761,1.28183 0.60977,-4.22161 1.05622,-8.80154 -0.8769,-12.76762 z"
       id="path15265" />
    <path
       style="color:#000000;fill:#5b0009;fill-opacity:1;stroke:#000000;stroke-width:1;stroke-miterlimit:4;stroke-dasharray:none;stroke-dashoffset:0;stroke-opacity:1"
       d="m 183.83789,193.86133 c -3.33975,2.34715 -5.92641,5.61395 -7.94135,9.13089 2.89323,1.65495 5.78646,3.30989 8.67969,4.96484 1.29583,-2.23876 2.87544,-4.3916 5.00425,-5.90832 -1.9142,-2.72914 -3.82839,-5.45827 -5.74259,-8.18741 z"
       id="path15263" />
    <path
       style="color:#000000;fill:#c00013;fill-opacity:1;stroke:#000000;stroke-width:1;stroke-miterlimit:4;stroke-dasharray:none;stroke-dashoffset:0;stroke-opacity:1"
       d="m 224.20703,191.17969 c -3.75816,2.18761 -6.46333,5.81762 -8.31451,9.68948 2.99544,1.46224 5.99089,2.92448 8.98633,4.38672 1.02951,-2.07468 2.31089,-4.19163 4.33784,-5.42188 -1.66989,-2.88477 -3.33977,-5.76955 -5.00966,-8.65432 z"
       id="path15261" />
    <path
       style="color:#000000;fill:#70000b;fill-opacity:1;stroke:#000000;stroke-width:1;stroke-miterlimit:4;stroke-dasharray:none;stroke-dashoffset:0;stroke-opacity:1"
       d="m 195.32617,190.35937 c -2.0926,0.14362 -6.71623,-0.44814 -4.86366,2.7159 0.68112,2.52569 1.36223,5.05138 2.04335,7.57707 2.13461,-0.48599 4.44411,-0.3741 6.50976,0.36716 1.3405,-3.05143 2.68099,-6.10287 4.02149,-9.1543 -2.42209,-1.06314 -5.08467,-1.44031 -7.71094,-1.50583 z"
       id="path15259" />
    <path
       style="color:#000000;fill:#d40015;fill-opacity:1;stroke:#000000;stroke-width:1;stroke-miterlimit:4;stroke-dasharray:none;stroke-dashoffset:0;stroke-opacity:1"
       d="m 235.61719,188.74219 c -2.08083,0.007 -6.06275,-0.84249 -4.64058,2.31074 0.39191,2.58652 0.78382,5.17305 1.17573,7.75957 2.46978,-1.18337 5.49597,2.02335 6.85235,-0.82808 1.73346,-2.04558 3.46693,-4.09117 5.20039,-6.13676 -2.37833,-2.02691 -5.51572,-2.92076 -8.58789,-3.10547 z"
       id="path9542" />
    <path
       id="rect6225"
       style="fill:#ff283c;fill-opacity:1;stroke:#000000;stroke-width:1;stroke-linecap:round;stroke-linejoin:round;stroke-miterlimit:4;stroke-dasharray:none;stroke-dashoffset:0;stroke-opacity:1"
       d="m 252.21701,216.90414 -6.95513,7.51582 7.03419,6.50969 -7.03419,6.50967 6.95513,7.51582 7.61761,-7.04918 7.61712,7.04918 6.95512,-7.51582 -7.03418,-6.50967 7.03418,-6.50917 -6.95512,-7.51634 -7.61762,7.04919 z" />
  </g>
</svg>
